<svg width="407.9771240234375px" height="83.35999908447266px" xmlns="http://www.w3.org/2000/svg" viewBox="46.011437988281244 33.32000045776367 407.9771240234375 83.35999908447266" style="background: rgb(255, 255, 255);" preserveAspectRatio="xMidYMid"><defs><filter id="editing-extrude-glow"><feFlood flood-color="#a0d5fb" result="flood-1"></feFlood><feMorphology operator="erode" radius="1" in="SourceAlpha" result="erode"></feMorphology><feComposite operator="in" in="flood-1" in2="erode" result="comp1"></feComposite><feConvolveMatrix order="4,4" divisor="1" in="comp1" result="convolve" kernelMatrix="0 0 0 0 0 0 0 0 1 1 1 1 0 0 0 0"></feConvolveMatrix><feOffset dx="-4" dy="0" in="convolve" result="extrude"></feOffset><feComposite operator="in" in="flood-1" in2="extrude" result="comp-extrude"></feComposite><feFlood flood-color="#5d6e70" result="flood-2"></feFlood><feComposite operator="in" in="flood-2" in2="SourceAlpha" result="comp2"></feComposite><feMorphology operator="dilate" radius="1" in="comp2" result="dilate"></feMorphology><feOffset dx="-6" dy="0" in="dilate" result="offset"></feOffset><feGaussianBlur in="offset" stdDeviation="5.8" result="blur"></feGaussianBlur><feComponentTransfer in="blur" result="shadow"><feFuncA type="linear" slope="0.8" intercept="-0.2"></feFuncA></feComponentTransfer><feMerge><feMergeNode in="shadow"></feMergeNode><feMergeNode in="comp-extrude"></feMergeNode><feMergeNode in="SourceGraphic"></feMergeNode></feMerge></filter></defs><g filter="url(#editing-extrude-glow)"><g transform="translate(108.62623167037964, 90.00000190734863)"><path d="M4.08 0L-0.52 0L6.72-26.40L15.08-26.40L16.92-11.32L24.36-26.40L31.36-26.40L32.08-6.64L32.08-6.64Q32.24-2.72 34.16-1.52L34.16-1.52L34.16-1.52Q33.72-0.72 32.44 0.04L32.44 0.04L32.44 0.04Q31.16 0.80 29.46 0.80L29.46 0.80L29.46 0.80Q27.76 0.80 26.76 0.32L26.76 0.32L26.76 0.32Q25.76-0.16 25.20-0.96L25.20-0.96L25.20-0.96Q24.20-2.40 24.20-5.16L24.20-5.16L24.20-17.52L16.32 0L11.36 0L8.56-17.96L4.08 0ZM44.60 0.80L44.60 0.80L44.60 0.80Q35.80 0.80 35.80-7.48L35.80-7.48L35.80-7.48Q35.80-13.36 39.04-17.16L39.04-17.16L39.04-17.16Q42.48-21.20 48.44-21.20L48.44-21.20L48.44-21.20Q52.76-21.20 54.96-19.20L54.96-19.20L54.96-19.20Q57.16-17.20 57.16-13L57.16-13L57.16-13Q57.16-6.60 53.72-2.88L53.72-2.88L53.72-2.88Q50.36 0.80 44.60 0.80ZM45.64-16.60L45.64-16.60L45.64-16.60Q45.16-15.52 44.78-13.90L44.78-13.90L44.78-13.90Q44.40-12.28 43.92-9.72L43.92-9.72L43.92-9.72Q43.44-7.16 43.44-4L43.44-4L43.44-4Q43.44-2.96 43.78-2.28L43.78-2.28L43.78-2.28Q44.12-1.60 45.04-1.60L45.04-1.60L45.04-1.60Q45.96-1.60 46.54-2.04L46.54-2.04L46.54-2.04Q47.12-2.48 47.56-3.52L47.56-3.52L47.56-3.52Q48.36-5.36 49-8.78L49-8.78L49-8.78Q49.64-12.20 49.70-13.68L49.70-13.68L49.70-13.68Q49.76-15.16 49.76-16.26L49.76-16.26L49.76-16.26Q49.76-17.36 49.44-18.08L49.44-18.08L49.44-18.08Q49.12-18.80 48.22-18.80L48.22-18.80L48.22-18.80Q47.32-18.80 46.72-18.24L46.72-18.24L46.72-18.24Q46.12-17.68 45.64-16.60ZM72.12-21.20L72.12-21.20L72.12-21.20Q73.56-21.20 74.68-20.88L74.68-20.88L74.68-20.88Q74.72-21.04 74.80-21.48L74.80-21.48L75-22.72L75-22.72Q75.16-23.52 75.40-24.84L75.40-24.84L76.04-28L84-28.80L79.56-5.60L79.56-5.60Q79.52-5.36 79.52-4.96L79.52-4.96L79.52-4.32L79.52-4.32Q79.52-3.44 79.96-2.78L79.96-2.78L79.96-2.78Q80.40-2.12 81.12-2.12L81.12-2.12L81.12-2.12Q80.32-0.24 77.88 0.56L77.88 0.56L77.88 0.56Q77.04 0.80 75.86 0.80L75.86 0.80L75.86 0.80Q74.68 0.80 73.60 0.18L73.60 0.18L73.60 0.18Q72.52-0.44 72.20-1.48L72.20-1.48L72.20-1.48Q71.56-0.44 70.28 0.18L70.28 0.18L70.28 0.18Q69 0.80 67.14 0.80L67.14 0.80L67.14 0.80Q65.28 0.80 63.74 0.32L63.74 0.32L63.74 0.32Q62.20-0.16 61.24-1.20L61.24-1.20L61.24-1.20Q59.48-3.24 59.48-7.88L59.48-7.88L59.48-7.88Q59.48-13.88 63-17.52L63-17.52L63-17.52Q66.52-21.20 72.12-21.20ZM71.84-18.80L71.84-18.80L71.84-18.80Q70.36-18.80 69.56-17.20L69.56-17.20L69.56-17.20Q68.76-15.60 67.94-11.64L67.94-11.64L67.94-11.64Q67.12-7.68 67.12-4.12L67.12-4.12L67.12-4.12Q67.12-1.68 68.56-1.68L68.56-1.68L68.56-1.68Q69.84-1.68 70.74-2.96L70.74-2.96L70.74-2.96Q71.64-4.24 72-6.36L72-6.36L74.16-18.08L74.16-18.08Q73.32-18.80 71.84-18.80ZM86.26-1.20L86.26-1.20L86.26-1.20Q85.32-2.24 84.90-3.88L84.90-3.88L84.90-3.88Q84.48-5.52 84.48-8.20L84.48-8.20L84.48-8.20Q84.48-10.88 85.40-13.32L85.40-13.32L85.40-13.32Q86.32-15.76 88-17.52L88-17.52L88-17.52Q91.44-21.20 97.12-21.20L97.12-21.20L97.12-21.20Q99.16-21.20 100.64-20.52L100.64-20.52L107.48-21.20L104.52-5.60L104.52-5.60Q104.40-5.12 104.40-4.24L104.40-4.24L104.40-4.24Q104.40-3.36 104.94-2.80L104.94-2.80L104.94-2.80Q105.48-2.24 106.28-2.16L106.28-2.16L106.28-2.16Q105.88-0.80 104.42 0L104.42 0L104.42 0Q102.96 0.80 101.32 0.80L101.32 0.80L101.32 0.80Q99.68 0.80 98.58 0.18L98.58 0.18L98.58 0.18Q97.48-0.44 97.16-1.48L97.16-1.48L97.16-1.48Q96.52-0.48 95.16 0.16L95.16 0.16L95.16 0.16Q93.80 0.80 91.98 0.80L91.98 0.80L91.98 0.80Q90.16 0.80 88.68 0.32L88.68 0.32L88.68 0.32Q87.20-0.16 86.26-1.20ZM94.70-17.44L94.70-17.44L94.70-17.44Q94.24-16.72 93.84-15.50L93.84-15.50L93.84-15.50Q93.44-14.28 92.78-11.02L92.78-11.02L92.78-11.02Q92.12-7.76 92.12-5.44L92.12-5.44L92.12-5.44Q92.12-3.12 92.48-2.44L92.48-2.44L92.48-2.44Q92.84-1.76 93.48-1.76L93.48-1.76L93.48-1.76Q94.76-1.76 95.70-2.98L95.70-2.98L95.70-2.98Q96.64-4.20 97-6.36L97-6.36L99.12-18.08L99.12-18.08Q98.28-18.80 97.30-18.80L97.30-18.80L97.30-18.80Q96.32-18.80 95.74-18.48L95.74-18.48L95.74-18.48Q95.16-18.16 94.70-17.44ZM119.20-2.20L119.20-2.20L119.20-2.20Q117.96 0.80 114.00 0.80L114.00 0.80L114.00 0.80Q112.00 0.80 110.72-0.60L110.72-0.60L110.72-0.60Q109.68-1.76 109.68-3.08L109.68-3.08L109.68-3.08Q109.68-6.08 111.08-12.64L111.08-12.64L114.00-28L122.12-28.80L118.24-8.56L118.24-8.56Q117.56-5.60 117.56-4.56L117.56-4.56L117.56-4.56Q117.56-2.28 119.20-2.20ZM146.44-18.48L146.44-18.48L146.44-18.48Q147.04-19.68 147.04-20.80L147.04-20.80L147.04-20.80Q147.04-21.92 146.92-22.54L146.92-22.54L146.92-22.54Q146.80-23.16 146.52-23.64L146.52-23.64L146.52-23.64Q145.92-24.68 144.72-24.68L144.72-24.68L144.72-24.68Q143.24-24.68 142.04-23.60L142.04-23.60L142.04-23.60Q140.76-22.48 140.76-20.72L140.76-20.72L140.76-20.72Q140.76-19.60 141.54-18.74L141.54-18.74L141.54-18.74Q142.32-17.88 143.52-17.08L143.52-17.08L143.52-17.08Q144.72-16.28 146.08-15.48L146.08-15.48L146.08-15.48Q147.44-14.68 148.64-13.72L148.64-13.72L148.64-13.72Q151.40-11.52 151.40-8.56L151.40-8.56L151.40-8.56Q151.40-6.56 150.34-4.86L150.34-4.86L150.34-4.86Q149.28-3.16 147.52-1.92L147.52-1.92L147.52-1.92Q143.68 0.80 138.60 0.80L138.60 0.80L138.60 0.80Q134.48 0.80 132.36-0.54L132.36-0.54L132.36-0.54Q130.24-1.88 130.24-3.92L130.24-3.92L130.24-3.92Q130.24-7.56 133.08-8.48L133.08-8.48L133.08-8.48Q133.88-8.76 135.10-8.76L135.10-8.76L135.10-8.76Q136.32-8.76 137.72-8.24L137.72-8.24L137.72-8.24Q137.08-6.60 137.08-5.12L137.08-5.12L137.08-5.12Q137.08-1.92 139.36-1.92L139.36-1.92L139.36-1.92Q140.84-1.92 142.06-3L142.06-3L142.06-3Q143.28-4.08 143.28-5.30L143.28-5.30L143.28-5.30Q143.28-6.52 142.50-7.40L142.50-7.40L142.50-7.40Q141.72-8.28 140.56-8.98L140.56-8.98L140.56-8.98Q139.40-9.68 138.06-10.36L138.06-10.36L138.06-10.36Q136.72-11.04 135.56-12L135.56-12L135.56-12Q132.84-14.20 132.84-17.72L132.84-17.72L132.84-17.72Q132.84-20 133.96-21.78L133.96-21.78L133.96-21.78Q135.08-23.56 136.88-24.76L136.88-24.76L136.88-24.76Q140.48-27.20 144.90-27.20L144.90-27.20L144.90-27.20Q149.32-27.20 151.46-25.88L151.46-25.88L151.46-25.88Q153.60-24.56 153.60-22.32L153.60-22.32L153.60-22.32Q153.60-20.36 152.08-19.12L152.08-19.12L152.08-19.12Q150.76-18.08 149.16-18.08L149.16-18.08L149.16-18.08Q147.56-18.08 146.44-18.48ZM164.04-2.20L164.04-2.20L164.04-2.20Q162.80 0.80 158.84 0.80L158.84 0.80L158.84 0.80Q156.80 0.80 155.52-0.60L155.52-0.60L155.52-0.60Q154.44-1.84 154.44-3.08L154.44-3.08L154.44-3.08Q154.44-6.32 155.92-12.64L155.92-12.64L157.40-20.40L165.52-21.20L163.08-8.56L163.08-8.56Q162.40-5.60 162.40-4.56L162.40-4.56L162.40-4.56Q162.40-2.28 164.04-2.20ZM158.12-25.96L158.12-25.96L158.12-25.96Q158.12-27.52 159.42-28.36L159.42-28.36L159.42-28.36Q160.72-29.20 162.60-29.20L162.60-29.20L162.60-29.20Q164.48-29.20 165.62-28.36L165.62-28.36L165.62-28.36Q166.76-27.52 166.76-25.96L166.76-25.96L166.76-25.96Q166.76-24.40 165.50-23.60L165.50-23.60L165.50-23.60Q164.24-22.80 162.36-22.80L162.36-22.80L162.36-22.80Q160.48-22.80 159.30-23.60L159.30-23.60L159.30-23.60Q158.12-24.40 158.12-25.96ZM180.04-21.20L180.04-21.20L180.04-21.20Q181.48-21.20 182.60-20.88L182.60-20.88L182.60-20.88Q182.64-21.04 182.72-21.48L182.72-21.48L182.92-22.72L182.92-22.72Q183.08-23.52 183.32-24.84L183.32-24.84L183.96-28L191.92-28.80L187.48-5.60L187.48-5.60Q187.44-5.36 187.44-4.96L187.44-4.96L187.44-4.32L187.44-4.32Q187.44-3.44 187.88-2.78L187.88-2.78L187.88-2.78Q188.32-2.12 189.04-2.12L189.04-2.12L189.04-2.12Q188.24-0.24 185.80 0.56L185.80 0.56L185.80 0.56Q184.96 0.80 183.78 0.80L183.78 0.80L183.78 0.80Q182.60 0.80 181.52 0.18L181.52 0.18L181.52 0.18Q180.44-0.44 180.12-1.48L180.12-1.48L180.12-1.48Q179.48-0.44 178.20 0.18L178.20 0.18L178.20 0.18Q176.92 0.80 175.06 0.80L175.06 0.80L175.06 0.80Q173.20 0.80 171.66 0.32L171.66 0.32L171.66 0.32Q170.12-0.16 169.16-1.20L169.16-1.20L169.16-1.20Q167.40-3.24 167.40-7.88L167.40-7.88L167.40-7.88Q167.40-13.88 170.92-17.52L170.92-17.52L170.92-17.52Q174.44-21.20 180.04-21.20ZM179.76-18.80L179.76-18.80L179.76-18.80Q178.28-18.80 177.48-17.20L177.48-17.20L177.48-17.20Q176.68-15.60 175.86-11.64L175.86-11.64L175.86-11.64Q175.04-7.68 175.04-4.12L175.04-4.12L175.04-4.12Q175.04-1.68 176.48-1.68L176.48-1.68L176.48-1.68Q177.76-1.68 178.66-2.96L178.66-2.96L178.66-2.96Q179.56-4.24 179.92-6.36L179.92-6.36L182.08-18.08L182.08-18.08Q181.24-18.80 179.76-18.80ZM208.64-6.76L208.64-6.76L208.64-6.76Q209.64-6.08 209.64-4.58L209.64-4.58L209.64-4.58Q209.64-3.08 208.88-2.12L208.88-2.12L208.88-2.12Q208.12-1.16 206.88-0.52L206.88-0.52L206.88-0.52Q204.32 0.80 201.56 0.80L201.56 0.80L201.56 0.80Q198.80 0.80 197.18 0.20L197.18 0.20L197.18 0.20Q195.56-0.40 194.48-1.52L194.48-1.52L194.48-1.52Q192.36-3.64 192.36-7.52L192.36-7.52L192.36-7.52Q192.36-13.56 195.64-17.24L195.64-17.24L195.64-17.24Q199.16-21.20 205.28-21.20L205.28-21.20L205.28-21.20Q209.08-21.20 210.96-19.60L210.96-19.60L210.96-19.60Q212.36-18.40 212.36-16.44L212.36-16.44L212.36-16.44Q212.36-9.40 200.20-9.40L200.20-9.40L200.20-9.40Q200.04-8.36 200.04-7.48L200.04-7.48L200.04-7.48Q200.04-5.64 200.86-4.94L200.86-4.94L200.86-4.94Q201.68-4.24 203.20-4.24L203.20-4.24L203.20-4.24Q204.72-4.24 206.34-4.94L206.34-4.94L206.34-4.94Q207.96-5.64 208.64-6.76ZM200.48-11.12L200.48-11.12L200.48-11.12Q203.32-11.12 204.96-12.88L204.96-12.88L204.96-12.88Q206.60-14.56 206.60-17.24L206.60-17.24L206.60-17.24Q206.60-18.16 206.26-18.66L206.26-18.66L206.26-18.66Q205.92-19.16 205.24-19.16L205.24-19.16L205.24-19.16Q204.56-19.16 203.98-18.90L203.98-18.90L203.98-18.90Q203.40-18.64 202.80-17.76L202.80-17.76L202.80-17.76Q201.32-15.76 200.48-11.12ZM213.20-1.92L213.20-1.92L218.16-28L226.28-28.80L225.04-22.68L225.04-22.68Q224.60-20.80 224.04-19.48L224.04-19.48L224.04-19.48Q224.92-20.60 226.84-21.04L226.84-21.04L226.84-21.04Q227.40-21.20 228.08-21.20L228.08-21.20L228.08-21.20Q231.80-21.20 233.84-18.94L233.84-18.94L233.84-18.94Q235.88-16.68 235.88-12.32L235.88-12.32L235.88-12.32Q235.88-6.64 232.64-3.08L232.64-3.08L232.64-3.08Q229.16 0.80 222.84 0.80L222.84 0.80L222.84 0.80Q218.48 0.80 215.20-0.64L215.20-0.64L215.20-0.64Q214.04-1.16 213.20-1.92ZM223.36-14L221.24-2.28L221.24-2.28Q222.08-1.56 223.12-1.56L223.12-1.56L223.12-1.56Q224.16-1.56 224.76-1.96L224.76-1.96L224.76-1.96Q225.36-2.36 225.80-3.16L225.80-3.16L225.80-3.16Q227.00-5.32 227.96-11.92L227.96-11.92L227.96-11.92Q228.24-13.80 228.24-15.68L228.24-15.68L228.24-15.68Q228.24-17.56 227.82-18.16L227.82-18.16L227.82-18.16Q227.40-18.76 226.60-18.76L226.60-18.76L226.60-18.76Q224.16-18.76 223.36-14L223.36-14ZM240.02-1.20L240.02-1.20L240.02-1.20Q239.08-2.24 238.66-3.88L238.66-3.88L238.66-3.88Q238.24-5.52 238.24-8.20L238.24-8.20L238.24-8.20Q238.24-10.88 239.16-13.32L239.16-13.32L239.16-13.32Q240.08-15.76 241.76-17.52L241.76-17.52L241.76-17.52Q245.20-21.20 250.88-21.20L250.88-21.20L250.88-21.20Q252.92-21.20 254.40-20.52L254.40-20.52L261.24-21.20L258.28-5.60L258.28-5.60Q258.16-5.12 258.16-4.24L258.16-4.24L258.16-4.24Q258.16-3.36 258.70-2.80L258.70-2.80L258.70-2.80Q259.24-2.24 260.04-2.16L260.04-2.16L260.04-2.16Q259.64-0.80 258.18 0L258.18 0L258.18 0Q256.72 0.80 255.08 0.80L255.08 0.80L255.08 0.80Q253.44 0.80 252.34 0.18L252.34 0.18L252.34 0.18Q251.24-0.44 250.92-1.48L250.92-1.48L250.92-1.48Q250.28-0.48 248.92 0.16L248.92 0.16L248.92 0.16Q247.56 0.80 245.74 0.80L245.74 0.80L245.74 0.80Q243.92 0.80 242.44 0.32L242.44 0.32L242.44 0.32Q240.96-0.16 240.02-1.20ZM248.46-17.44L248.46-17.44L248.46-17.44Q248.00-16.72 247.60-15.50L247.60-15.50L247.60-15.50Q247.20-14.28 246.54-11.02L246.54-11.02L246.54-11.02Q245.88-7.76 245.88-5.44L245.88-5.44L245.88-5.44Q245.88-3.12 246.24-2.44L246.24-2.44L246.24-2.44Q246.60-1.76 247.24-1.76L247.24-1.76L247.24-1.76Q248.52-1.76 249.46-2.98L249.46-2.98L249.46-2.98Q250.40-4.20 250.76-6.36L250.76-6.36L252.88-18.08L252.88-18.08Q252.04-18.80 251.06-18.80L251.06-18.80L251.06-18.80Q250.08-18.80 249.50-18.48L249.50-18.48L249.50-18.48Q248.92-18.16 248.46-17.44ZM275.92-11.24L275.92-11.24L275.92-11.24Q277.36-13.80 277.36-16.40L277.36-16.40L277.36-16.40Q277.36-18.12 276.12-18.12L276.12-18.12L276.12-18.12Q275.16-18.12 274.16-16.48L274.16-16.48L274.16-16.48Q273.12-14.84 272.80-12.72L272.80-12.72L270.72 0L262.44 0.80L266.52-20.40L273.12-21.20L272.40-17.16L272.40-17.16Q274.36-21.20 278.76-21.20L278.76-21.20L278.76-21.20Q281.08-21.20 282.34-20L282.34-20L282.34-20Q283.60-18.80 283.60-16.34L283.60-16.34L283.60-16.34Q283.60-13.88 281.98-12.32L281.98-12.32L281.98-12.32Q280.36-10.76 277.60-10.76L277.60-10.76L277.60-10.76Q276.40-10.76 275.92-11.24Z" fill="#4b96d5"></path></g></g><style>text {
  font-size: 64px;
  font-family: Arial Black;
  dominant-baseline: central;
  text-anchor: middle;
}</style></svg>