<svg width="656.835107421875px" height="113.11999816894532px" xmlns="http://www.w3.org/2000/svg" viewBox="-78.41755371093751 18.440000915527342 656.835107421875 113.11999816894532" style="background: rgb(255, 255, 255);" preserveAspectRatio="xMidYMid"><defs><filter id="editing-extrude-glow"><feFlood flood-color="#91d0ff" result="flood-1"></feFlood><feMorphology operator="erode" radius="1" in="SourceAlpha" result="erode"></feMorphology><feComposite operator="in" in="flood-1" in2="erode" result="comp1"></feComposite><feConvolveMatrix order="4,4" divisor="1" in="comp1" result="convolve" kernelMatrix="0 0 0 0 0 0 0 0 1 1 1 1 0 0 0 0"></feConvolveMatrix><feOffset dx="-4" dy="0" in="convolve" result="extrude"></feOffset><feComposite operator="in" in="flood-1" in2="extrude" result="comp-extrude"></feComposite><feFlood flood-color="#36484a" result="flood-2"></feFlood><feComposite operator="in" in="flood-2" in2="SourceAlpha" result="comp2"></feComposite><feMorphology operator="dilate" radius="1" in="comp2" result="dilate"></feMorphology><feOffset dx="-6" dy="0" in="dilate" result="offset"></feOffset><feGaussianBlur in="offset" stdDeviation="5.8" result="blur"></feGaussianBlur><feComponentTransfer in="blur" result="shadow"><feFuncA type="linear" slope="0.8" intercept="-0.2"></feFuncA></feComponentTransfer><feMerge><feMergeNode in="shadow"></feMergeNode><feMergeNode in="comp-extrude"></feMergeNode><feMergeNode in="SourceGraphic"></feMergeNode></feMerge></filter></defs><g filter="url(#editing-extrude-glow)"><g transform="translate(9.860121250152588, 95.13000106811523)"><path d="M25.68 0.30L25.68 0.30Q24.78 0.30 24.42-0.30L24.42-0.30L10.92-30.84L10.74-30.84L10.86-7.02L10.86-7.02Q10.92-5.40 11.10-4.53L11.10-4.53L11.10-4.53Q11.28-3.66 12.09-3.03L12.09-3.03L12.09-3.03Q12.90-2.40 14.64-2.40L14.64-2.40L15-2.40L15-2.40Q15.60-2.40 15.87-2.19L15.87-2.19L15.87-2.19Q16.14-1.98 16.20-1.14L16.20-1.14L16.20-1.14Q16.20-0.60 15.93-0.21L15.93-0.21L15.93-0.21Q15.66 0.18 15.12 0.18L15.12 0.18L13.62 0.12L13.62 0.12Q10.86 0 9.66 0L9.66 0L9.66 0Q7.62 0 3.72 0.18L3.72 0.18L3.72 0.18Q3.18 0.18 2.91-0.21L2.91-0.21L2.91-0.21Q2.64-0.60 2.64-1.14L2.64-1.14L2.64-1.14Q2.70-2.04 3-2.22L3-2.22L3-2.22Q3.30-2.40 4.14-2.40L4.14-2.40L4.14-2.40Q5.88-2.40 6.69-3.03L6.69-3.03L6.69-3.03Q7.50-3.66 7.68-4.53L7.68-4.53L7.68-4.53Q7.86-5.40 7.92-7.02L7.92-7.02L8.04-30.84L8.04-30.84Q8.04-32.70 7.62-33.63L7.62-33.63L7.62-33.63Q7.20-34.56 6.39-34.95L6.39-34.95L6.39-34.95Q5.58-35.34 4.02-35.64L4.02-35.64L4.02-35.64Q3.78-35.70 3.30-35.79L3.30-35.79L3.30-35.79Q2.82-35.88 2.67-36.15L2.67-36.15L2.67-36.15Q2.52-36.42 2.52-37.02L2.52-37.02L2.52-37.02Q2.52-37.74 2.91-37.98L2.91-37.98L2.91-37.98Q3.30-38.22 4.14-38.22L4.14-38.22L4.14-38.22Q7.68-38.22 9.96-37.77L9.96-37.77L9.96-37.77Q12.24-37.32 13.95-35.94L13.95-35.94L13.95-35.94Q15.66-34.56 16.80-31.86L16.80-31.86L27.12-8.70L27.30-8.70L39.12-37.86L42.54-37.86L42.54-37.86Q45.84-37.86 49.68-38.04L49.68-38.04L49.68-38.04Q50.22-38.04 50.49-37.65L50.49-37.65L50.49-37.65Q50.76-37.26 50.76-36.72L50.76-36.72L50.76-36.72Q50.70-35.82 50.37-35.64L50.37-35.64L50.37-35.64Q50.04-35.46 49.26-35.46L49.26-35.46L49.26-35.46Q47.52-35.46 46.68-34.83L46.68-34.83L46.68-34.83Q45.84-34.20 45.63-33.27L45.63-33.27L45.63-33.27Q45.42-32.34 45.36-30.84L45.36-30.84L45.36-7.02L45.36-7.02Q45.42-5.52 45.63-4.59L45.63-4.59L45.63-4.59Q45.84-3.66 46.68-3.03L46.68-3.03L46.68-3.03Q47.52-2.40 49.26-2.40L49.26-2.40L49.62-2.40L49.62-2.40Q50.16-2.40 50.43-2.19L50.43-2.19L50.43-2.19Q50.70-1.98 50.76-1.14L50.76-1.14L50.76-1.14Q50.76-0.60 50.49-0.21L50.49-0.21L50.49-0.21Q50.22 0.18 49.68 0.18L49.68 0.18L49.68 0.18Q45.84 0 42.48 0L42.48 0L42.48 0Q39 0 35.10 0.18L35.10 0.18L35.10 0.18Q34.56 0.18 34.29-0.21L34.29-0.21L34.29-0.21Q34.02-0.60 34.02-1.14L34.02-1.14L34.02-1.14Q34.08-2.04 34.38-2.22L34.38-2.22L34.38-2.22Q34.68-2.40 35.52-2.40L35.52-2.40L35.52-2.40Q37.26-2.40 38.10-3.03L38.10-3.03L38.10-3.03Q38.94-3.66 39.15-4.59L39.15-4.59L39.15-4.59Q39.36-5.52 39.42-7.02L39.42-7.02L39.42-30.84L39.24-30.84L26.88-0.30L26.88-0.30Q26.64 0.30 25.68 0.30L25.68 0.30ZM75.30 1.20L75.30 1.20Q69.60 1.20 65.25-1.53L65.25-1.53L65.25-1.53Q60.90-4.26 58.53-8.76L58.53-8.76L58.53-8.76Q56.16-13.26 56.16-18.42L56.16-18.42L56.16-18.42Q56.16-24.72 59.01-29.40L59.01-29.40L59.01-29.40Q61.86-34.08 66.30-36.57L66.30-36.57L66.30-36.57Q70.74-39.06 75.30-39.06L75.30-39.06L75.30-39.06Q81.06-39.06 85.47-36.33L85.47-36.33L85.47-36.33Q89.88-33.60 92.25-29.13L92.25-29.13L92.25-29.13Q94.62-24.66 94.62-19.50L94.62-19.50L94.62-19.50Q94.62-13.20 91.74-8.49L91.74-8.49L91.74-8.49Q88.86-3.78 84.36-1.29L84.36-1.29L84.36-1.29Q79.86 1.20 75.30 1.20L75.30 1.20ZM75.24-1.44L75.24-1.44Q79.32-1.44 82.05-3.87L82.05-3.87L82.05-3.87Q84.78-6.30 86.13-10.41L86.13-10.41L86.13-10.41Q87.48-14.52 87.48-19.50L87.48-19.50L87.48-19.50Q87.48-24.12 86.10-27.99L86.10-27.99L86.10-27.99Q84.72-31.86 81.96-34.17L81.96-34.17L81.96-34.17Q79.20-36.48 75.24-36.48L75.24-36.48L75.24-36.48Q69.24-36.48 66.21-31.41L66.21-31.41L66.21-31.41Q63.18-26.34 63.18-18.60L63.18-18.60L63.18-18.60Q63.18-13.92 64.53-10.02L64.53-10.02L64.53-10.02Q65.88-6.12 68.58-3.78L68.58-3.78L68.58-3.78Q71.28-1.44 75.24-1.44L75.24-1.44ZM101.04 0.18L101.04 0.18Q100.56 0.18 100.29-0.21L100.29-0.21L100.29-0.21Q100.02-0.60 100.02-1.14L100.02-1.14L100.02-1.14Q100.08-2.04 100.38-2.22L100.38-2.22L100.38-2.22Q100.68-2.40 101.52-2.40L101.52-2.40L101.52-2.40Q103.26-2.40 104.10-3.03L104.10-3.03L104.10-3.03Q104.94-3.66 105.15-4.59L105.15-4.59L105.15-4.59Q105.36-5.52 105.42-7.02L105.42-7.02L105.42-30.84L105.42-30.84Q105.36-32.34 105.15-33.27L105.15-33.27L105.15-33.27Q104.94-34.20 104.10-34.83L104.10-34.83L104.10-34.83Q103.26-35.46 101.52-35.46L101.52-35.46L101.16-35.46L101.16-35.46Q100.56-35.46 100.32-35.67L100.32-35.67L100.32-35.67Q100.08-35.88 100.02-36.72L100.02-36.72L100.02-36.72Q100.02-37.26 100.29-37.65L100.29-37.65L100.29-37.65Q100.56-38.04 101.04-38.04L101.04-38.04L101.04-38.04Q105-37.86 108.18-37.86L108.18-37.86L117.54-37.86L117.54-37.86Q123.30-37.86 128.01-35.55L128.01-35.55L128.01-35.55Q132.72-33.24 135.45-28.92L135.45-28.92L135.45-28.92Q138.18-24.60 138.18-18.72L138.18-18.72L138.18-18.72Q138.18-12.60 135.09-8.37L135.09-8.37L135.09-8.37Q132-4.14 127.05-2.07L127.05-2.07L127.05-2.07Q122.10 0 116.46 0L116.46 0L108.18 0L108.18 0Q105 0 101.04 0.18L101.04 0.18ZM117.36-2.22L117.36-2.22Q124.38-2.22 127.65-6.57L127.65-6.57L127.65-6.57Q130.92-10.92 130.92-18.72L130.92-18.72L130.92-18.72Q130.92-23.64 129.15-27.51L129.15-27.51L129.15-27.51Q127.38-31.38 124.02-33.54L124.02-33.54L124.02-33.54Q120.66-35.70 116.04-35.70L116.04-35.70L111.36-35.64L111.36-6.30L111.36-6.30Q111.36-3.96 112.77-3.09L112.77-3.09L112.77-3.09Q114.18-2.22 117.36-2.22L117.36-2.22ZM141.48 0.18L141.48 0.18Q140.94 0.18 140.67-0.21L140.67-0.21L140.67-0.21Q140.40-0.60 140.40-1.14L140.40-1.14L140.40-1.14Q140.46-2.04 140.76-2.22L140.76-2.22L140.76-2.22Q141.06-2.40 141.48-2.40L141.48-2.40L141.48-2.40Q141.90-2.40 142.02-2.40L142.02-2.40L142.02-2.40Q143.82-2.40 144.66-3.33L144.66-3.33L144.66-3.33Q145.50-4.26 146.01-5.43L146.01-5.43L146.01-5.43Q146.52-6.60 146.70-7.02L146.70-7.02L157.20-31.86L157.20-31.86Q157.56-32.76 157.56-33.30L157.56-33.30L157.56-33.30Q157.56-34.38 156.72-34.86L156.72-34.86L156.72-34.86Q155.88-35.34 154.38-35.64L154.38-35.64L154.38-35.64Q153.36-35.82 153.12-36L153.12-36L153.12-36Q152.88-36.18 152.88-37.02L152.88-37.02L152.88-37.02Q152.88-37.74 153.27-37.98L153.27-37.98L153.27-37.98Q153.66-38.22 154.50-38.22L154.50-38.22L154.50-38.22Q157.50-38.22 159.27-37.77L159.27-37.77L159.27-37.77Q161.04-37.32 162.36-35.97L162.36-35.97L162.36-35.97Q163.68-34.62 164.82-31.86L164.82-31.86L174.90-7.02L174.90-7.02Q175.80-4.74 176.64-3.60L176.64-3.60L176.64-3.60Q177.48-2.46 179.16-2.40L179.16-2.40L179.52-2.40L179.52-2.40Q180.12-2.40 180.36-2.19L180.36-2.19L180.36-2.19Q180.60-1.98 180.66-1.14L180.66-1.14L180.66-1.14Q180.66-0.60 180.39-0.21L180.39-0.21L180.39-0.21Q180.12 0.18 179.58 0.18L179.58 0.18L179.58 0.18Q175.74 0 172.98 0L172.98 0L172.98 0Q169.38 0 165.54 0.18L165.54 0.18L165.54 0.18Q165 0.18 164.73-0.21L164.73-0.21L164.73-0.21Q164.46-0.60 164.46-1.14L164.46-1.14L164.46-1.14Q164.52-1.98 164.76-2.19L164.76-2.19L164.76-2.19Q165-2.40 165.60-2.40L165.60-2.40L165.60-2.40Q167.64-2.40 168.48-2.79L168.48-2.79L168.48-2.79Q169.32-3.18 169.32-4.20L169.32-4.20L169.32-4.20Q169.32-4.98 168.60-7.02L168.60-7.02L166.56-12L151.74-12L151.74-12Q150.24-8.28 150.03-7.68L150.03-7.68L150.03-7.68Q149.82-7.08 149.82-7.02L149.82-7.02L149.82-7.02Q149.10-4.74 149.10-4.08L149.10-4.08L149.10-4.08Q149.10-3.06 150-2.73L150-2.73L150-2.73Q150.90-2.40 153.42-2.40L153.42-2.40L153.78-2.40L153.78-2.40Q154.38-2.40 154.62-2.19L154.62-2.19L154.62-2.19Q154.86-1.98 154.92-1.14L154.92-1.14L154.92-1.14Q154.92-0.60 154.65-0.21L154.65-0.21L154.65-0.21Q154.38 0.18 153.84 0.18L153.84 0.18L153.84 0.18Q150 0 147.30 0L147.30 0L147.30 0Q145.38 0 141.48 0.18L141.48 0.18ZM159.24-30L152.88-14.58L165.48-14.58L159.42-30L159.24-30ZM183.90 0.18L183.90 0.18Q183.42 0.18 183.15-0.21L183.15-0.21L183.15-0.21Q182.88-0.60 182.88-1.14L182.88-1.14L182.88-1.14Q182.94-2.04 183.24-2.22L183.24-2.22L183.24-2.22Q183.54-2.40 184.38-2.40L184.38-2.40L184.38-2.40Q186.12-2.40 186.96-3.03L186.96-3.03L186.96-3.03Q187.80-3.66 188.01-4.59L188.01-4.59L188.01-4.59Q188.22-5.52 188.28-7.02L188.28-7.02L188.28-30.84L188.28-30.84Q188.22-32.34 188.01-33.27L188.01-33.27L188.01-33.27Q187.80-34.20 186.96-34.83L186.96-34.83L186.96-34.83Q186.12-35.46 184.38-35.46L184.38-35.46L184.02-35.46L184.02-35.46Q183.42-35.46 183.18-35.67L183.18-35.67L183.18-35.67Q182.94-35.88 182.88-36.72L182.88-36.72L182.88-36.72Q182.88-37.26 183.15-37.65L183.15-37.65L183.15-37.65Q183.42-38.04 183.90-38.04L183.90-38.04L183.90-38.04Q187.86-37.86 191.04-37.86L191.04-37.86L191.04-37.86Q194.64-37.86 198.54-38.04L198.54-38.04L198.54-38.04Q199.08-38.04 199.35-37.65L199.35-37.65L199.35-37.65Q199.62-37.26 199.62-36.72L199.62-36.72L199.62-36.72Q199.56-35.82 199.23-35.64L199.23-35.64L199.23-35.64Q198.90-35.46 198.12-35.46L198.12-35.46L198.12-35.46Q196.38-35.46 195.54-34.83L195.54-34.83L195.54-34.83Q194.70-34.20 194.49-33.27L194.49-33.27L194.49-33.27Q194.28-32.34 194.22-30.84L194.22-30.84L194.22-6.12L194.22-6.12Q194.34-4.86 194.52-4.17L194.52-4.17L194.52-4.17Q194.70-3.48 195.60-2.91L195.60-2.91L195.60-2.91Q196.50-2.34 198.42-2.40L198.42-2.40L203.82-2.40L203.82-2.40Q205.92-2.46 207-3.09L207-3.09L207-3.09Q208.08-3.72 208.71-5.04L208.71-5.04L208.71-5.04Q209.34-6.36 210.24-9.36L210.24-9.36L210.24-9.36Q210.66-10.44 212.28-10.20L212.28-10.20L212.28-10.20Q212.82-10.08 213.30-9.72L213.30-9.72L213.30-9.72Q213.78-9.36 213.72-8.82L213.72-8.82L212.52-1.26L212.52-1.26Q212.34-0.48 211.98-0.24L211.98-0.24L211.98-0.24Q211.62 0 210.78 0L210.78 0L191.10 0L191.10 0Q187.86 0 183.90 0.18L183.90 0.18ZM243.84 1.20L243.84 1.20Q237.54 1.20 234.21-0.99L234.21-0.99L234.21-0.99Q230.88-3.18 230.88-7.44L230.88-7.44L230.88-7.44Q230.88-9.60 232.35-11.01L232.35-11.01L232.35-11.01Q233.82-12.42 236.16-12.42L236.16-12.42L236.16-12.42Q237.54-12.36 238.26-11.73L238.26-11.73L238.26-11.73Q238.98-11.10 238.98-10.56L238.98-10.56L238.98-10.56Q238.98-10.50 238.38-10.14L238.38-10.14L238.38-10.14Q237.78-9.78 237.30-9.06L237.30-9.06L237.30-9.06Q236.82-8.34 236.82-7.08L236.82-7.08L236.82-7.08Q236.82-4.26 238.53-2.73L238.53-2.73L238.53-2.73Q240.24-1.20 243.84-1.20L243.84-1.20L243.84-1.20Q246.30-1.20 248.16-2.16L248.16-2.16L248.16-2.16Q250.02-3.12 251.01-4.71L251.01-4.71L251.01-4.71Q252-6.30 252-8.04L252-8.04L252-8.04Q252-10.20 250.77-11.76L250.77-11.76L250.77-11.76Q249.54-13.32 247.74-14.37L247.74-14.37L247.74-14.37Q245.94-15.42 242.82-16.80L242.82-16.80L242.82-16.80Q239.22-18.42 237-19.74L237-19.74L237-19.74Q234.78-21.06 233.22-23.25L233.22-23.25L233.22-23.25Q231.66-25.44 231.66-28.68L231.66-28.68L231.66-28.68Q231.66-33.90 235.23-36.48L235.23-36.48L235.23-36.48Q238.80-39.06 244.62-39.06L244.62-39.06L244.62-39.06Q249.18-39.06 252.57-37.14L252.57-37.14L252.57-37.14Q255.96-35.22 255.96-31.50L255.96-31.50L255.96-31.50Q255.96-29.34 254.49-27.93L254.49-27.93L254.49-27.93Q253.02-26.52 250.68-26.52L250.68-26.52L250.68-26.52Q249.30-26.58 248.58-27.21L248.58-27.21L248.58-27.21Q247.86-27.84 247.86-28.38L247.86-28.38L247.86-28.38Q247.86-28.44 248.67-28.80L248.67-28.80L248.67-28.80Q249.48-29.16 250.11-29.88L250.11-29.88L250.11-29.88Q250.74-30.60 250.74-31.86L250.74-31.86L250.74-31.86Q250.74-34.08 249.03-35.34L249.03-35.34L249.03-35.34Q247.32-36.60 244.68-36.60L244.68-36.60L244.68-36.60Q241.02-36.60 239.13-34.89L239.13-34.89L239.13-34.89Q237.24-33.18 237.24-30.66L237.24-30.66L237.24-30.66Q237.24-28.56 238.38-27.15L238.38-27.15L238.38-27.15Q239.52-25.74 242.04-24.36L242.04-24.36L242.04-24.36Q244.08-23.28 246.48-22.20L246.48-22.20L246.48-22.20Q250.32-20.46 252.57-19.02L252.57-19.02L252.57-19.02Q254.82-17.58 256.35-15.24L256.35-15.24L256.35-15.24Q257.88-12.90 257.88-9.42L257.88-9.42L257.88-9.42Q257.88-6.42 255.99-3.99L255.99-3.99L255.99-3.99Q254.10-1.56 250.89-0.18L250.89-0.18L250.89-0.18Q247.68 1.20 243.84 1.20L243.84 1.20ZM264.24 0.18L264.24 0.18Q263.70 0.18 263.43-0.21L263.43-0.21L263.43-0.21Q263.16-0.60 263.16-1.14L263.16-1.14L263.16-1.14Q263.22-2.04 263.55-2.22L263.55-2.22L263.55-2.22Q263.88-2.40 264.66-2.40L264.66-2.40L264.66-2.40Q266.40-2.40 267.24-3.03L267.24-3.03L267.24-3.03Q268.08-3.66 268.32-4.56L268.32-4.56L268.32-4.56Q268.56-5.46 268.62-7.02L268.62-7.02L268.62-30.84L268.62-30.84Q268.56-32.40 268.32-33.30L268.32-33.30L268.32-33.30Q268.08-34.20 267.24-34.83L267.24-34.83L267.24-34.83Q266.40-35.46 264.66-35.46L264.66-35.46L264.30-35.46L264.30-35.46Q263.76-35.46 263.49-35.67L263.49-35.67L263.49-35.67Q263.22-35.88 263.16-36.72L263.16-36.72L263.16-36.72Q263.16-37.26 263.43-37.65L263.43-37.65L263.43-37.65Q263.70-38.04 264.24-38.04L264.24-38.04L264.24-38.04Q268.14-37.86 271.38-37.86L271.38-37.86L271.38-37.86Q274.98-37.86 278.88-38.04L278.88-38.04L278.88-38.04Q279.42-38.04 279.69-37.65L279.69-37.65L279.69-37.65Q279.96-37.26 279.96-36.72L279.96-36.72L279.96-36.72Q279.90-35.82 279.57-35.64L279.57-35.64L279.57-35.64Q279.24-35.46 278.40-35.46L278.40-35.46L278.40-35.46Q276.66-35.46 275.82-34.83L275.82-34.83L275.82-34.83Q274.98-34.20 274.77-33.27L274.77-33.27L274.77-33.27Q274.56-32.34 274.50-30.84L274.50-30.84L274.50-7.02L274.50-7.02Q274.56-5.52 274.77-4.59L274.77-4.59L274.77-4.59Q274.98-3.66 275.82-3.03L275.82-3.03L275.82-3.03Q276.66-2.40 278.40-2.40L278.40-2.40L278.76-2.40L278.76-2.40Q279.36-2.40 279.63-2.19L279.63-2.19L279.63-2.19Q279.90-1.98 279.96-1.14L279.96-1.14L279.96-1.14Q279.96-0.60 279.69-0.21L279.69-0.21L279.69-0.21Q279.42 0.18 278.88 0.18L278.88 0.18L278.88 0.18Q275.04 0 271.44 0L271.44 0L271.44 0Q268.14 0 264.24 0.18L264.24 0.18ZM286.08 0.18L286.08 0.18Q285.60 0.18 285.33-0.21L285.33-0.21L285.33-0.21Q285.06-0.60 285.06-1.14L285.06-1.14L285.06-1.14Q285.12-2.04 285.42-2.22L285.42-2.22L285.42-2.22Q285.72-2.40 286.56-2.40L286.56-2.40L286.56-2.40Q288.30-2.40 289.14-3.03L289.14-3.03L289.14-3.03Q289.98-3.66 290.19-4.59L290.19-4.59L290.19-4.59Q290.40-5.52 290.46-7.02L290.46-7.02L290.46-30.84L290.46-30.84Q290.40-32.34 290.19-33.27L290.19-33.27L290.19-33.27Q289.98-34.20 289.14-34.83L289.14-34.83L289.14-34.83Q288.30-35.46 286.56-35.46L286.56-35.46L286.20-35.46L286.20-35.46Q285.60-35.46 285.36-35.67L285.36-35.67L285.36-35.67Q285.12-35.88 285.06-36.72L285.06-36.72L285.06-36.72Q285.06-37.26 285.33-37.65L285.33-37.65L285.33-37.65Q285.60-38.04 286.08-38.04L286.08-38.04L286.08-38.04Q290.04-37.86 293.22-37.86L293.22-37.86L302.58-37.86L302.58-37.86Q308.34-37.86 313.05-35.55L313.05-35.55L313.05-35.55Q317.76-33.24 320.49-28.92L320.49-28.92L320.49-28.92Q323.22-24.60 323.22-18.72L323.22-18.72L323.22-18.72Q323.22-12.60 320.13-8.37L320.13-8.37L320.13-8.37Q317.04-4.14 312.09-2.07L312.09-2.07L312.09-2.07Q307.14 0 301.50 0L301.50 0L293.22 0L293.22 0Q290.04 0 286.08 0.18L286.08 0.18ZM302.40-2.22L302.40-2.22Q309.42-2.22 312.69-6.57L312.69-6.57L312.69-6.57Q315.96-10.92 315.96-18.72L315.96-18.72L315.96-18.72Q315.96-23.64 314.19-27.51L314.19-27.51L314.19-27.51Q312.42-31.38 309.06-33.54L309.06-33.54L309.06-33.54Q305.70-35.70 301.08-35.70L301.08-35.70L296.40-35.64L296.40-6.30L296.40-6.30Q296.40-3.96 297.81-3.09L297.81-3.09L297.81-3.09Q299.22-2.22 302.40-2.22L302.40-2.22ZM329.76 0.18L329.76 0.18Q329.28 0.18 329.01-0.21L329.01-0.21L329.01-0.21Q328.74-0.60 328.74-1.14L328.74-1.14L328.74-1.14Q328.80-2.04 329.10-2.22L329.10-2.22L329.10-2.22Q329.40-2.40 330.24-2.40L330.24-2.40L330.24-2.40Q331.98-2.40 332.82-3.03L332.82-3.03L332.82-3.03Q333.66-3.66 333.87-4.59L333.87-4.59L333.87-4.59Q334.08-5.52 334.14-7.02L334.14-7.02L334.14-30.84L334.14-30.84Q334.08-32.34 333.87-33.27L333.87-33.27L333.87-33.27Q333.66-34.20 332.82-34.83L332.82-34.83L332.82-34.83Q331.98-35.46 330.24-35.46L330.24-35.46L329.88-35.46L329.88-35.46Q329.28-35.46 329.04-35.67L329.04-35.67L329.04-35.67Q328.80-35.88 328.74-36.72L328.74-36.72L328.74-36.72Q328.74-37.26 329.01-37.65L329.01-37.65L329.01-37.65Q329.28-38.04 329.76-38.04L329.76-38.04L329.76-38.04Q333.72-37.86 336.90-37.86L336.90-37.86L355.74-37.86L355.74-37.86Q357.30-37.86 357.30-36.42L357.30-36.42L357.48-28.02L357.48-28.02Q357.48-27.48 356.94-27.15L356.94-27.15L356.94-27.15Q356.40-26.82 355.86-26.82L355.86-26.82L355.86-26.82Q355.14-26.82 354.60-27.09L354.60-27.09L354.60-27.09Q354.06-27.36 354.00-27.90L354.00-27.90L354.00-27.90Q353.52-30.84 352.95-32.37L352.95-32.37L352.95-32.37Q352.38-33.90 351.27-34.65L351.27-34.65L351.27-34.65Q350.16-35.40 348.12-35.46L348.12-35.46L340.08-35.46L340.08-20.22L350.94-20.22L350.94-20.22Q351.36-20.16 351.60-19.77L351.60-19.77L351.60-19.77Q351.84-19.38 351.84-18.84L351.84-18.84L351.84-18.84Q351.84-18.36 351.60-18L351.60-18L351.60-18Q351.36-17.64 350.94-17.64L350.94-17.64L340.08-17.64L340.08-6.30L340.08-6.30Q340.20-5.04 340.38-4.29L340.38-4.29L340.38-4.29Q340.56-3.54 341.46-2.94L341.46-2.94L341.46-2.94Q342.36-2.34 344.28-2.40L344.28-2.40L349.80-2.40L349.80-2.40Q351.90-2.46 352.98-3.09L352.98-3.09L352.98-3.09Q354.06-3.72 354.69-5.04L354.69-5.04L354.69-5.04Q355.32-6.36 356.22-9.36L356.22-9.36L356.22-9.36Q356.64-10.44 358.26-10.20L358.26-10.20L358.26-10.20Q358.86-10.08 359.31-9.72L359.31-9.72L359.31-9.72Q359.76-9.36 359.70-8.82L359.70-8.82L358.50-1.26L358.50-1.26Q358.32-0.48 357.96-0.24L357.96-0.24L357.96-0.24Q357.60 0 356.76 0L356.76 0L336.96 0L336.96 0Q333.72 0 329.76 0.18L329.76 0.18ZM365.40 0.18L365.40 0.18Q364.86 0.18 364.59-0.21L364.59-0.21L364.59-0.21Q364.32-0.60 364.32-1.14L364.32-1.14L364.32-1.14Q364.38-2.04 364.68-2.22L364.68-2.22L364.68-2.22Q364.98-2.40 365.82-2.40L365.82-2.40L365.82-2.40Q367.56-2.40 368.40-3.03L368.40-3.03L368.40-3.03Q369.24-3.66 369.45-4.59L369.45-4.59L369.45-4.59Q369.66-5.52 369.72-7.02L369.72-7.02L369.72-30.84L369.72-30.84Q369.66-32.34 369.45-33.27L369.45-33.27L369.45-33.27Q369.24-34.20 368.40-34.83L368.40-34.83L368.40-34.83Q367.56-35.46 365.82-35.46L365.82-35.46L365.46-35.46L365.46-35.46Q364.86-35.46 364.62-35.67L364.62-35.67L364.62-35.67Q364.38-35.88 364.32-36.72L364.32-36.72L364.32-36.72Q364.32-37.26 364.59-37.65L364.59-37.65L364.59-37.65Q364.86-38.04 365.40-38.04L365.40-38.04L365.40-38.04Q369.30-37.86 372.48-37.86L372.48-37.86L380.94-37.86L380.94-37.86Q384.24-37.86 386.28-37.38L386.28-37.38L386.28-37.38Q388.32-36.90 389.94-35.88L389.94-35.88L389.94-35.88Q391.50-34.86 392.40-33.09L392.40-33.09L392.40-33.09Q393.30-31.32 393.30-29.22L393.30-29.22L393.30-29.22Q393.30-25.50 390.87-23.31L390.87-23.31L390.87-23.31Q388.44-21.12 385.20-20.34L385.20-20.34L385.20-20.16L385.20-20.16Q388.32-20.16 390.87-18.93L390.87-18.93L390.87-18.93Q393.42-17.70 394.83-15.63L394.83-15.63L394.83-15.63Q396.24-13.56 396.24-11.16L396.24-11.16L396.24-11.16Q396.24-7.08 393.75-4.56L393.75-4.56L393.75-4.56Q391.26-2.04 387.51-0.99L387.51-0.99L387.51-0.99Q383.76 0.06 379.74 0.06L379.74 0.06L372.54 0L372.54 0Q369.30 0 365.40 0.18L365.40 0.18ZM375.66-21.36L378.18-21.36L378.18-21.36Q380.58-21.36 382.35-21.72L382.35-21.72L382.35-21.72Q384.12-22.08 385.50-23.64L385.50-23.64L385.50-23.64Q386.88-25.20 386.88-28.50L386.88-28.50L386.88-28.50Q386.88-35.64 379.86-35.64L379.86-35.64L375.66-35.64L375.66-21.36ZM379.98-2.34L379.98-2.34Q384.42-2.40 387.09-4.53L387.09-4.53L387.09-4.53Q389.76-6.66 389.76-11.52L389.76-11.52L389.76-11.52Q389.46-14.76 386.73-16.86L386.73-16.86L386.73-16.86Q384.00-18.96 378.12-18.96L378.12-18.96L375.66-18.96L375.66-7.02L375.66-7.02Q375.66-4.98 376.05-3.99L376.05-3.99L376.05-3.99Q376.44-3 377.31-2.67L377.31-2.67L377.31-2.67Q378.18-2.34 379.98-2.34L379.98-2.34ZM399.42 0.18L399.42 0.18Q398.88 0.18 398.61-0.21L398.61-0.21L398.61-0.21Q398.34-0.60 398.34-1.14L398.34-1.14L398.34-1.14Q398.40-2.04 398.70-2.22L398.70-2.22L398.70-2.22Q399.00-2.40 399.42-2.40L399.42-2.40L399.42-2.40Q399.84-2.40 399.96-2.40L399.96-2.40L399.96-2.40Q401.76-2.40 402.60-3.33L402.60-3.33L402.60-3.33Q403.44-4.26 403.95-5.43L403.95-5.43L403.95-5.43Q404.46-6.60 404.64-7.02L404.64-7.02L415.14-31.86L415.14-31.86Q415.50-32.76 415.50-33.30L415.50-33.30L415.50-33.30Q415.50-34.38 414.66-34.86L414.66-34.86L414.66-34.86Q413.82-35.34 412.32-35.64L412.32-35.64L412.32-35.64Q411.30-35.82 411.06-36L411.06-36L411.06-36Q410.82-36.18 410.82-37.02L410.82-37.02L410.82-37.02Q410.82-37.74 411.21-37.98L411.21-37.98L411.21-37.98Q411.60-38.22 412.44-38.22L412.44-38.22L412.44-38.22Q415.44-38.22 417.21-37.77L417.21-37.77L417.21-37.77Q418.98-37.32 420.30-35.97L420.30-35.97L420.30-35.97Q421.62-34.62 422.76-31.86L422.76-31.86L432.84-7.02L432.84-7.02Q433.74-4.74 434.58-3.60L434.58-3.60L434.58-3.60Q435.42-2.46 437.10-2.40L437.10-2.40L437.46-2.40L437.46-2.40Q438.06-2.40 438.30-2.19L438.30-2.19L438.30-2.19Q438.54-1.98 438.60-1.14L438.60-1.14L438.60-1.14Q438.60-0.60 438.33-0.21L438.33-0.21L438.33-0.21Q438.06 0.18 437.52 0.18L437.52 0.18L437.52 0.18Q433.68 0 430.92 0L430.92 0L430.92 0Q427.32 0 423.48 0.18L423.48 0.18L423.48 0.18Q422.94 0.18 422.67-0.21L422.67-0.21L422.67-0.21Q422.40-0.60 422.40-1.14L422.40-1.14L422.40-1.14Q422.46-1.98 422.70-2.19L422.70-2.19L422.70-2.19Q422.94-2.40 423.54-2.40L423.54-2.40L423.54-2.40Q425.58-2.40 426.42-2.79L426.42-2.79L426.42-2.79Q427.26-3.18 427.26-4.20L427.26-4.20L427.26-4.20Q427.26-4.98 426.54-7.02L426.54-7.02L424.50-12L409.68-12L409.68-12Q408.18-8.28 407.97-7.68L407.97-7.68L407.97-7.68Q407.76-7.08 407.76-7.02L407.76-7.02L407.76-7.02Q407.04-4.74 407.04-4.08L407.04-4.08L407.04-4.08Q407.04-3.06 407.94-2.73L407.94-2.73L407.94-2.73Q408.84-2.40 411.36-2.40L411.36-2.40L411.72-2.40L411.72-2.40Q412.32-2.40 412.56-2.19L412.56-2.19L412.56-2.19Q412.80-1.98 412.86-1.14L412.86-1.14L412.86-1.14Q412.86-0.60 412.59-0.21L412.59-0.21L412.59-0.21Q412.32 0.18 411.78 0.18L411.78 0.18L411.78 0.18Q407.94 0 405.24 0L405.24 0L405.24 0Q403.32 0 399.42 0.18L399.42 0.18ZM417.18-30L410.82-14.58L423.42-14.58L417.36-30L417.18-30ZM441.90 0.18L441.90 0.18Q441.36 0.18 441.09-0.21L441.09-0.21L441.09-0.21Q440.82-0.60 440.82-1.14L440.82-1.14L440.82-1.14Q440.88-2.04 441.18-2.22L441.18-2.22L441.18-2.22Q441.48-2.40 442.32-2.40L442.32-2.40L442.32-2.40Q444.06-2.40 444.90-3.03L444.90-3.03L444.90-3.03Q445.74-3.66 445.95-4.59L445.95-4.59L445.95-4.59Q446.16-5.52 446.22-7.02L446.22-7.02L446.22-30.78L446.22-30.78Q446.16-32.34 445.95-33.24L445.95-33.24L445.95-33.24Q445.74-34.14 444.90-34.80L444.90-34.80L444.90-34.80Q444.06-35.46 442.32-35.46L442.32-35.46L441.96-35.46L441.96-35.46Q441.36-35.46 441.12-35.67L441.12-35.67L441.12-35.67Q440.88-35.88 440.82-36.72L440.82-36.72L440.82-36.72Q440.82-37.26 441.09-37.65L441.09-37.65L441.09-37.65Q441.36-38.04 441.90-38.04L441.90-38.04L441.90-38.04Q445.80-37.86 449.04-37.86L449.04-37.86L459.36-37.86L459.36-37.86Q463.98-37.80 467.07-36.39L467.07-36.39L467.07-36.39Q470.16-34.98 471.60-32.79L471.60-32.79L471.60-32.79Q473.04-30.60 473.04-28.08L473.04-28.08L473.04-28.08Q473.04-24.78 470.43-22.02L470.43-22.02L470.43-22.02Q467.82-19.26 463.32-18.06L463.32-18.06L464.34-16.44L464.34-16.44Q466.86-12.36 468.90-9.45L468.90-9.45L468.90-9.45Q470.94-6.54 473.34-4.02L473.34-4.02L473.34-4.02Q475.02-2.64 476.94-2.40L476.94-2.40L476.94-2.40Q477.06-2.40 477.48-2.37L477.48-2.37L477.48-2.37Q477.90-2.34 478.17-2.04L478.17-2.04L478.17-2.04Q478.44-1.74 478.44-1.14L478.44-1.14L478.44-1.14Q478.44-0.60 478.17-0.21L478.17-0.21L478.17-0.21Q477.90 0.18 477.36 0.18L477.36 0.18L475.80 0.12L475.80 0.12Q473.16 0 471.96 0L471.96 0L471.96 0Q469.56-0.48 467.85-1.71L467.85-1.71L467.85-1.71Q466.14-2.94 464.46-5.22L464.46-5.22L464.46-5.22Q462.72-7.50 459.60-12.66L459.60-12.66L458.52-14.40L458.52-14.40Q457.62-15.78 456.78-16.29L456.78-16.29L456.78-16.29Q455.94-16.80 453.90-16.80L453.90-16.80L452.16-16.80L452.16-7.02L452.16-7.02Q452.22-5.52 452.43-4.59L452.43-4.59L452.43-4.59Q452.64-3.66 453.48-3.03L453.48-3.03L453.48-3.03Q454.32-2.40 456.06-2.40L456.06-2.40L456.42-2.40L456.42-2.40Q456.96-2.40 457.23-2.19L457.23-2.19L457.23-2.19Q457.50-1.98 457.56-1.14L457.56-1.14L457.56-1.14Q457.56-0.60 457.29-0.21L457.29-0.21L457.29-0.21Q457.02 0.18 456.48 0.18L456.48 0.18L456.48 0.18Q452.64 0 448.98 0L448.98 0L448.98 0Q445.80 0 441.90 0.18L441.90 0.18ZM452.16-19.14L457.44-19.14L457.44-19.14Q466.38-19.14 466.38-27.54L466.38-27.54L466.38-27.54Q466.38-30.96 464.04-33.30L464.04-33.30L464.04-33.30Q461.70-35.64 456.36-35.64L456.36-35.64L456.36-35.64Q454.62-35.64 453.72-35.22L453.72-35.22L453.72-35.22Q452.82-34.80 452.49-33.78L452.49-33.78L452.49-33.78Q452.16-32.76 452.16-30.66L452.16-30.66L452.16-19.14Z" fill="#5699d2"></path></g></g><style>text {
  font-size: 64px;
  font-family: Arial Black;
  dominant-baseline: central;
  text-anchor: middle;
}</style></svg>